<mxfile host="Electron" agent="Mozilla/5.0 (X11; Linux x86_64) AppleWebKit/537.36 (KHTML, like Gecko) draw.io/26.0.4 Chrome/128.0.6613.186 Electron/32.2.5 Safari/537.36" version="26.0.4">
  <diagram name="Page-1" id="CgYhCcMuBvL_8NXD6LVv">
    <mxGraphModel dx="683" dy="420" grid="1" gridSize="10" guides="1" tooltips="1" connect="1" arrows="1" fold="1" page="1" pageScale="1" pageWidth="827" pageHeight="1169" math="0" shadow="0">
      <root>
        <mxCell id="0" />
        <mxCell id="1" parent="0" />
        <mxCell id="n1w3Qg0y4TUtk8DljQY4-1" value="&lt;font style=&quot;font-size: 16px;&quot;&gt;Plotter&lt;/font&gt;" style="rounded=0;whiteSpace=wrap;html=1;" parent="1" vertex="1">
          <mxGeometry x="340" y="240" width="120" height="60" as="geometry" />
        </mxCell>
        <mxCell id="n1w3Qg0y4TUtk8DljQY4-2" value="&lt;font style=&quot;font-size: 16px;&quot;&gt;Bot&lt;/font&gt;" style="rounded=0;whiteSpace=wrap;html=1;" parent="1" vertex="1">
          <mxGeometry x="280" y="160" width="60" height="40" as="geometry" />
        </mxCell>
        <mxCell id="n1w3Qg0y4TUtk8DljQY4-6" style="edgeStyle=none;curved=1;rounded=0;orthogonalLoop=1;jettySize=auto;html=1;entryX=0.5;entryY=0;entryDx=0;entryDy=0;fontSize=12;startSize=8;endSize=8;endArrow=none;endFill=0;" parent="1" source="n1w3Qg0y4TUtk8DljQY4-3" target="n1w3Qg0y4TUtk8DljQY4-1" edge="1">
          <mxGeometry relative="1" as="geometry" />
        </mxCell>
        <mxCell id="n1w3Qg0y4TUtk8DljQY4-3" value="&lt;font style=&quot;font-size: 16px;&quot;&gt;Map&lt;/font&gt;" style="rounded=0;whiteSpace=wrap;html=1;" parent="1" vertex="1">
          <mxGeometry x="370" y="160" width="60" height="40" as="geometry" />
        </mxCell>
        <mxCell id="n1w3Qg0y4TUtk8DljQY4-7" style="edgeStyle=none;curved=1;rounded=0;orthogonalLoop=1;jettySize=auto;html=1;entryX=0.5;entryY=0;entryDx=0;entryDy=0;fontSize=12;startSize=8;endSize=8;endArrow=none;endFill=0;exitX=0.5;exitY=1;exitDx=0;exitDy=0;" parent="1" source="n1w3Qg0y4TUtk8DljQY4-4" target="n1w3Qg0y4TUtk8DljQY4-1" edge="1">
          <mxGeometry relative="1" as="geometry" />
        </mxCell>
        <mxCell id="n1w3Qg0y4TUtk8DljQY4-4" value="&lt;font style=&quot;font-size: 16px;&quot;&gt;util&lt;/font&gt;&lt;div&gt;&lt;font style=&quot;font-size: 16px;&quot;&gt;(Matplotlib)&lt;/font&gt;&lt;/div&gt;" style="rounded=0;whiteSpace=wrap;html=1;" parent="1" vertex="1">
          <mxGeometry x="460" y="150" width="100" height="50" as="geometry" />
        </mxCell>
        <mxCell id="n1w3Qg0y4TUtk8DljQY4-5" value="" style="endArrow=none;html=1;rounded=0;fontSize=12;startSize=8;endSize=8;curved=1;entryX=0.5;entryY=0;entryDx=0;entryDy=0;exitX=0.5;exitY=1;exitDx=0;exitDy=0;" parent="1" source="n1w3Qg0y4TUtk8DljQY4-2" target="n1w3Qg0y4TUtk8DljQY4-1" edge="1">
          <mxGeometry width="50" height="50" relative="1" as="geometry">
            <mxPoint x="210" y="310" as="sourcePoint" />
            <mxPoint x="260" y="260" as="targetPoint" />
          </mxGeometry>
        </mxCell>
        <mxCell id="n1w3Qg0y4TUtk8DljQY4-8" value="&lt;font style=&quot;font-size: 16px;&quot;&gt;include&lt;/font&gt;" style="rounded=0;whiteSpace=wrap;html=1;" parent="1" vertex="1">
          <mxGeometry x="370" y="80" width="60" height="40" as="geometry" />
        </mxCell>
      </root>
    </mxGraphModel>
  </diagram>
</mxfile>
